<?xml version="1.0" encoding="UTF-8" standalone="no"?>
<!DOCTYPE svg PUBLIC "-//W3C//DTD SVG 1.1//EN"
 "http://www.w3.org/Graphics/SVG/1.1/DTD/svg11.dtd">
<!-- Generated by graphviz version 2.43.0 (0)
 -->
<!-- Title: %3 Pages: 1 -->
<svg width="244pt" height="1052pt"
 viewBox="0.00 0.00 244.00 1052.00" xmlns="http://www.w3.org/2000/svg" xmlns:xlink="http://www.w3.org/1999/xlink">
<g id="graph0" class="graph" transform="scale(1 1) rotate(0) translate(4 1048)">
<title>%3</title>
<polygon fill="white" stroke="transparent" points="-4,4 -4,-1048 240,-1048 240,4 -4,4"/>
<!-- 3 -->
<g id="node1" class="node">
<title>3</title>
<ellipse fill="none" stroke="black" cx="46" cy="-522" rx="27" ry="18"/>
<text text-anchor="middle" x="46" y="-518.3" font-family="Times,serif" font-size="14.00">3</text>
</g>
<!-- 10 -->
<g id="node2" class="node">
<title>10</title>
<ellipse fill="none" stroke="black" cx="27" cy="-450" rx="27" ry="18"/>
<text text-anchor="middle" x="27" y="-446.3" font-family="Times,serif" font-size="14.00">10</text>
</g>
<!-- 3&#45;&gt;10 -->
<g id="edge1" class="edge">
<title>3&#45;&gt;10</title>
<path fill="none" stroke="red" d="M41.4,-504.05C39.25,-496.14 36.65,-486.54 34.24,-477.69"/>
<polygon fill="red" stroke="red" points="37.55,-476.52 31.56,-467.79 30.8,-478.36 37.55,-476.52"/>
</g>
<!-- 5 -->
<g id="node3" class="node">
<title>5</title>
<ellipse fill="none" stroke="black" cx="82" cy="-378" rx="27" ry="18"/>
<text text-anchor="middle" x="82" y="-374.3" font-family="Times,serif" font-size="14.00">5</text>
</g>
<!-- 10&#45;&gt;5 -->
<g id="edge2" class="edge">
<title>10&#45;&gt;5</title>
<path fill="none" stroke="red" d="M38.93,-433.81C46.21,-424.55 55.66,-412.52 63.85,-402.09"/>
<polygon fill="red" stroke="red" points="66.66,-404.18 70.09,-394.16 61.16,-399.86 66.66,-404.18"/>
</g>
<!-- 5&#45;&gt;3 -->
<g id="edge9" class="edge">
<title>5&#45;&gt;3</title>
<path fill="none" stroke="black" d="M78.86,-396.18C75.45,-414.2 69.59,-443.27 63,-468 60.67,-476.76 57.76,-486.22 55.01,-494.69"/>
<polygon fill="black" stroke="black" points="51.61,-493.82 51.79,-504.42 58.26,-496.02 51.61,-493.82"/>
</g>
<!-- 5&#45;&gt;5 -->
<g id="edge8" class="edge">
<title>5&#45;&gt;5</title>
<path fill="none" stroke="black" d="M101.9,-390.43C114.69,-393.68 127,-389.53 127,-378 127,-369.62 120.5,-365.14 112.04,-364.56"/>
<polygon fill="black" stroke="black" points="111.5,-361.1 101.9,-365.57 112.19,-368.07 111.5,-361.1"/>
</g>
<!-- 16 -->
<g id="node4" class="node">
<title>16</title>
<ellipse fill="none" stroke="black" cx="82" cy="-306" rx="27" ry="18"/>
<text text-anchor="middle" x="82" y="-302.3" font-family="Times,serif" font-size="14.00">16</text>
</g>
<!-- 5&#45;&gt;16 -->
<g id="edge3" class="edge">
<title>5&#45;&gt;16</title>
<path fill="none" stroke="red" d="M82,-359.7C82,-351.98 82,-342.71 82,-334.11"/>
<polygon fill="red" stroke="red" points="85.5,-334.1 82,-324.1 78.5,-334.1 85.5,-334.1"/>
</g>
<!-- 8 -->
<g id="node5" class="node">
<title>8</title>
<ellipse fill="none" stroke="black" cx="82" cy="-234" rx="27" ry="18"/>
<text text-anchor="middle" x="82" y="-230.3" font-family="Times,serif" font-size="14.00">8</text>
</g>
<!-- 16&#45;&gt;8 -->
<g id="edge4" class="edge">
<title>16&#45;&gt;8</title>
<path fill="none" stroke="red" d="M82,-287.7C82,-279.98 82,-270.71 82,-262.11"/>
<polygon fill="red" stroke="red" points="85.5,-262.1 82,-252.1 78.5,-262.1 85.5,-262.1"/>
</g>
<!-- 4 -->
<g id="node6" class="node">
<title>4</title>
<ellipse fill="none" stroke="black" cx="82" cy="-162" rx="27" ry="18"/>
<text text-anchor="middle" x="82" y="-158.3" font-family="Times,serif" font-size="14.00">4</text>
</g>
<!-- 8&#45;&gt;4 -->
<g id="edge5" class="edge">
<title>8&#45;&gt;4</title>
<path fill="none" stroke="red" d="M82,-215.7C82,-207.98 82,-198.71 82,-190.11"/>
<polygon fill="red" stroke="red" points="85.5,-190.1 82,-180.1 78.5,-190.1 85.5,-190.1"/>
</g>
<!-- 2 -->
<g id="node7" class="node">
<title>2</title>
<ellipse fill="none" stroke="black" cx="82" cy="-90" rx="27" ry="18"/>
<text text-anchor="middle" x="82" y="-86.3" font-family="Times,serif" font-size="14.00">2</text>
</g>
<!-- 4&#45;&gt;2 -->
<g id="edge6" class="edge">
<title>4&#45;&gt;2</title>
<path fill="none" stroke="yellow" d="M82,-143.7C82,-135.98 82,-126.71 82,-118.11"/>
<polygon fill="yellow" stroke="yellow" points="85.5,-118.1 82,-108.1 78.5,-118.1 85.5,-118.1"/>
</g>
<!-- 1 -->
<g id="node8" class="node">
<title>1</title>
<ellipse fill="none" stroke="black" cx="82" cy="-18" rx="27" ry="18"/>
<text text-anchor="middle" x="82" y="-14.3" font-family="Times,serif" font-size="14.00">1</text>
</g>
<!-- 2&#45;&gt;1 -->
<g id="edge7" class="edge">
<title>2&#45;&gt;1</title>
<path fill="none" stroke="yellow" d="M82,-71.7C82,-63.98 82,-54.71 82,-46.11"/>
<polygon fill="yellow" stroke="yellow" points="85.5,-46.1 82,-36.1 78.5,-46.1 85.5,-46.1"/>
</g>
<!-- Z -->
<g id="node9" class="node">
<title>Z</title>
<ellipse fill="none" stroke="black" cx="209" cy="-1026" rx="27" ry="18"/>
<text text-anchor="middle" x="209" y="-1022.3" font-family="Times,serif" font-size="14.00">Z</text>
</g>
<!-- 7 -->
<g id="node10" class="node">
<title>7</title>
<ellipse fill="none" stroke="black" cx="137" cy="-1026" rx="27" ry="18"/>
<text text-anchor="middle" x="137" y="-1022.3" font-family="Times,serif" font-size="14.00">7</text>
</g>
<!-- 22 -->
<g id="node11" class="node">
<title>22</title>
<ellipse fill="none" stroke="black" cx="137" cy="-954" rx="27" ry="18"/>
<text text-anchor="middle" x="137" y="-950.3" font-family="Times,serif" font-size="14.00">22</text>
</g>
<!-- 7&#45;&gt;22 -->
<g id="edge10" class="edge">
<title>7&#45;&gt;22</title>
<path fill="none" stroke="orange" d="M137,-1007.7C137,-999.98 137,-990.71 137,-982.11"/>
<polygon fill="orange" stroke="orange" points="140.5,-982.1 137,-972.1 133.5,-982.1 140.5,-982.1"/>
</g>
<!-- 11 -->
<g id="node12" class="node">
<title>11</title>
<ellipse fill="none" stroke="black" cx="137" cy="-882" rx="27" ry="18"/>
<text text-anchor="middle" x="137" y="-878.3" font-family="Times,serif" font-size="14.00">11</text>
</g>
<!-- 22&#45;&gt;11 -->
<g id="edge11" class="edge">
<title>22&#45;&gt;11</title>
<path fill="none" stroke="orange" d="M137,-935.7C137,-927.98 137,-918.71 137,-910.11"/>
<polygon fill="orange" stroke="orange" points="140.5,-910.1 137,-900.1 133.5,-910.1 140.5,-910.1"/>
</g>
<!-- 34 -->
<g id="node13" class="node">
<title>34</title>
<ellipse fill="none" stroke="black" cx="137" cy="-810" rx="27" ry="18"/>
<text text-anchor="middle" x="137" y="-806.3" font-family="Times,serif" font-size="14.00">34</text>
</g>
<!-- 11&#45;&gt;34 -->
<g id="edge12" class="edge">
<title>11&#45;&gt;34</title>
<path fill="none" stroke="orange" d="M137,-863.7C137,-855.98 137,-846.71 137,-838.11"/>
<polygon fill="orange" stroke="orange" points="140.5,-838.1 137,-828.1 133.5,-838.1 140.5,-838.1"/>
</g>
<!-- 17 -->
<g id="node14" class="node">
<title>17</title>
<ellipse fill="none" stroke="black" cx="137" cy="-738" rx="27" ry="18"/>
<text text-anchor="middle" x="137" y="-734.3" font-family="Times,serif" font-size="14.00">17</text>
</g>
<!-- 34&#45;&gt;17 -->
<g id="edge13" class="edge">
<title>34&#45;&gt;17</title>
<path fill="none" stroke="orange" d="M137,-791.7C137,-783.98 137,-774.71 137,-766.11"/>
<polygon fill="orange" stroke="orange" points="140.5,-766.1 137,-756.1 133.5,-766.1 140.5,-766.1"/>
</g>
<!-- 52 -->
<g id="node15" class="node">
<title>52</title>
<ellipse fill="none" stroke="black" cx="137" cy="-666" rx="27" ry="18"/>
<text text-anchor="middle" x="137" y="-662.3" font-family="Times,serif" font-size="14.00">52</text>
</g>
<!-- 17&#45;&gt;52 -->
<g id="edge14" class="edge">
<title>17&#45;&gt;52</title>
<path fill="none" stroke="orange" d="M137,-719.7C137,-711.98 137,-702.71 137,-694.11"/>
<polygon fill="orange" stroke="orange" points="140.5,-694.1 137,-684.1 133.5,-694.1 140.5,-694.1"/>
</g>
<!-- 26 -->
<g id="node16" class="node">
<title>26</title>
<ellipse fill="none" stroke="black" cx="137" cy="-594" rx="27" ry="18"/>
<text text-anchor="middle" x="137" y="-590.3" font-family="Times,serif" font-size="14.00">26</text>
</g>
<!-- 52&#45;&gt;26 -->
<g id="edge15" class="edge">
<title>52&#45;&gt;26</title>
<path fill="none" stroke="orange" d="M137,-647.7C137,-639.98 137,-630.71 137,-622.11"/>
<polygon fill="orange" stroke="orange" points="140.5,-622.1 137,-612.1 133.5,-622.1 140.5,-622.1"/>
</g>
<!-- 13 -->
<g id="node17" class="node">
<title>13</title>
<ellipse fill="none" stroke="black" cx="137" cy="-522" rx="27" ry="18"/>
<text text-anchor="middle" x="137" y="-518.3" font-family="Times,serif" font-size="14.00">13</text>
</g>
<!-- 26&#45;&gt;13 -->
<g id="edge16" class="edge">
<title>26&#45;&gt;13</title>
<path fill="none" stroke="orange" d="M137,-575.7C137,-567.98 137,-558.71 137,-550.11"/>
<polygon fill="orange" stroke="orange" points="140.5,-550.1 137,-540.1 133.5,-550.1 140.5,-550.1"/>
</g>
<!-- 40 -->
<g id="node18" class="node">
<title>40</title>
<ellipse fill="none" stroke="black" cx="137" cy="-450" rx="27" ry="18"/>
<text text-anchor="middle" x="137" y="-446.3" font-family="Times,serif" font-size="14.00">40</text>
</g>
<!-- 13&#45;&gt;40 -->
<g id="edge17" class="edge">
<title>13&#45;&gt;40</title>
<path fill="none" stroke="orange" d="M137,-503.7C137,-495.98 137,-486.71 137,-478.11"/>
<polygon fill="orange" stroke="orange" points="140.5,-478.1 137,-468.1 133.5,-478.1 140.5,-478.1"/>
</g>
<!-- 40&#45;&gt;5 -->
<g id="edge18" class="edge">
<title>40&#45;&gt;5</title>
<path fill="none" stroke="black" d="M125.07,-433.81C117.79,-424.55 108.34,-412.52 100.15,-402.09"/>
<polygon fill="black" stroke="black" points="102.84,-399.86 93.91,-394.16 97.34,-404.18 102.84,-399.86"/>
</g>
</g>
</svg>
